<?xml version="1.0" standalone="no"?>
<!DOCTYPE svg PUBLIC "-//W3C//DTD SVG 20010904//EN"
 "http://www.w3.org/TR/2001/REC-SVG-20010904/DTD/svg10.dtd">
<svg version="1.0" xmlns="http://www.w3.org/2000/svg"
 width="400.000000pt" height="400.000000pt" viewBox="0 0 400.000000 400.000000"
 preserveAspectRatio="xMidYMid meet">
<metadata>
Created by potrace 1.14, written by Peter Selinger 2001-2017
</metadata>
<g transform="translate(0.000000,400.000000) scale(0.100000,-0.100000)"
fill="#000000" stroke="none">
<path d="M1685 3985 c-113 -21 -128 -24 -163 -34 -18 -5 -36 -10 -40 -11 -25
-3 -155 -46 -199 -65 -29 -13 -53 -22 -53 -19 0 8 -244 -121 -305 -161 -143
-94 -202 -142 -335 -275 -123 -123 -156 -162 -245 -295 -185 -277 -289 -558
-332 -900 -5 -33 -8 -143 -7 -245 1 -200 16 -326 60 -490 23 -88 87 -270 102
-295 4 -5 7 -13 7 -16 0 -7 87 -180 98 -194 4 -5 33 -50 65 -100 98 -151 282
-355 402 -445 18 -14 38 -30 44 -36 23 -21 194 -134 205 -134 6 0 11 -4 11
-10 0 -5 6 -10 14 -10 7 0 19 -7 26 -15 6 -8 15 -14 18 -13 4 1 44 -17 90 -40
45 -22 82 -38 82 -35 0 3 6 1 13 -4 6 -5 35 -17 62 -27 28 -10 57 -20 65 -23
25 -10 33 -12 110 -33 79 -21 90 -23 210 -45 99 -18 528 -18 625 0 113 21 128
24 163 34 18 5 33 10 35 9 1 0 22 5 47 12 25 7 46 12 48 11 1 -1 16 6 32 14
16 8 33 16 37 17 8 1 29 9 103 38 25 10 52 21 60 24 68 26 313 177 374 230 16
15 32 26 36 26 3 0 19 13 36 28 16 16 55 52 87 80 31 29 55 52 53 52 -2 0 18
23 45 50 45 46 199 242 199 253 0 3 16 29 35 59 94 141 214 442 249 623 37
187 41 237 40 445 -1 255 -36 453 -119 678 -41 108 -111 259 -133 285 -8 9
-12 17 -9 17 3 0 -14 30 -38 68 -46 69 -49 74 -125 176 -24 34 -96 113 -160
176 -96 97 -155 146 -305 257 -25 18 -71 45 -87 50 -10 3 -18 9 -18 14 0 5 -6
9 -14 9 -7 0 -19 7 -26 15 -6 8 -15 14 -18 13 -4 -1 -47 18 -95 41 -48 23
-114 51 -145 62 -31 11 -64 23 -72 26 -17 7 -14 6 -90 28 -65 19 -65 19 -200
44 -86 16 -148 19 -345 19 -152 0 -266 -5 -310 -13z"/>
</g>
</svg>
